<svg version="1.1" id="Layer_1" xmlns="http://www.w3.org/2000/svg" xmlns:xlink="http://www.w3.org/1999/xlink" x="0px" y="0px"
	 width="100%" viewBox="0 0 704 528" enable-background="new 0 0 704 528" xml:space="preserve">
<path fill="#000000" opacity="1.000000" stroke="none" 
	d="
M281.687683,378.999939 
	C281.685577,295.705994 281.680756,212.912064 281.684235,130.118149 
	C281.685028,111.171646 293.937836,98.852043 312.926117,98.767242 
	C326.419434,98.706985 339.913239,98.736572 353.406738,98.771294 
	C355.023041,98.775452 356.724609,98.388313 358.204346,99.304977 
	C358.606018,100.092262 358.337128,100.788307 357.729462,101.056946 
	C350.894043,104.078522 349.223419,109.868835 349.236633,116.618958 
	C349.239532,118.096375 349.374908,119.721619 347.798798,120.623100 
	C343.814728,122.901779 344.879974,126.286110 346.224243,129.312439 
	C350.144623,138.138306 346.002502,145.974228 336.602905,147.219025 
	C331.837799,147.850067 327.087280,148.604507 322.345734,149.396179 
	C317.042114,150.281647 313.392426,153.694916 310.426880,157.824783 
	C308.395813,160.653275 306.422638,163.636292 305.079224,166.826340 
	C298.822754,181.683044 290.962555,195.844757 285.993652,211.266556 
	C284.579132,215.656708 285.860321,219.467545 287.309723,223.359512 
	C288.567627,226.737289 291.740997,225.554916 294.214386,225.982864 
	C296.219391,226.329773 298.866638,225.180252 299.893890,227.872894 
	C300.822754,230.307755 298.651184,231.690140 297.511139,233.491791 
	C291.510071,242.975403 289.935944,253.225845 293.417267,263.930267 
	C296.565460,273.610291 302.784790,281.948639 306.006042,291.631592 
	C306.404175,292.828339 307.267120,293.699036 308.591003,293.613190 
	C313.134064,293.318451 314.790436,296.502167 316.659515,299.805054 
	C331.565521,326.145966 351.084167,348.299622 376.243744,365.357635 
	C380.666504,368.356201 382.734344,372.859192 381.642548,378.243408 
	C381.110138,380.869110 381.983154,383.009949 383.336517,384.779114 
	C388.872559,392.016205 390.184937,400.784180 391.885681,409.223511 
	C392.800140,413.761078 391.488770,418.791931 390.929871,423.570801 
	C390.172852,430.043579 388.649017,436.587067 394.803802,441.440735 
	C392.841156,443.589020 390.718506,442.984070 388.819611,442.987213 
	C363.665009,443.028687 338.510101,443.068024 313.355652,442.991608 
	C293.840454,442.932312 281.694824,430.580536 281.686371,410.984924 
	C281.681824,400.489929 281.687164,389.994934 281.687683,378.999939 
M318.343414,423.677399 
	C321.074951,423.804138 321.652252,422.175293 321.647064,419.846771 
	C321.615448,405.703308 321.642944,391.559723 321.633148,377.416199 
	C321.631866,375.559937 321.705017,373.512543 319.049835,373.439209 
	C315.894165,373.352081 316.349945,375.789825 316.366577,377.699341 
	C316.421753,384.012329 316.124847,390.321960 316.893829,396.636841 
	C317.369263,400.540955 318.058716,404.579590 316.526855,409.210449 
	C316.046539,408.062012 315.782501,407.652374 315.703613,407.209686 
	C313.957916,397.412781 312.198944,387.617981 310.522369,377.809113 
	C309.957550,374.504578 308.423645,372.982971 304.816650,373.167572 
	C301.164948,373.354492 300.951538,375.496246 300.956512,378.196747 
	C300.981903,392.007294 300.963348,405.817932 301.004333,419.628448 
	C301.009705,421.436035 300.907166,423.656311 303.616302,423.529449 
	C306.065643,423.414703 305.668610,421.300140 305.674561,419.717041 
	C305.706512,411.231110 305.652954,402.744812 305.685364,394.258881 
	C305.691681,392.602325 305.261566,390.809753 306.748169,388.522369 
	C307.122894,390.061859 307.342712,390.813232 307.486572,391.578827 
	C309.139130,400.373444 310.709900,409.184265 312.465485,417.958160 
	C313.016235,420.710724 312.930664,424.369934 318.343414,423.677399 
M327.306854,406.497742 
	C327.314392,410.821320 327.464905,415.150940 327.282959,419.466522 
	C327.144501,422.750977 328.505493,424.036255 331.679810,423.808685 
	C333.334991,423.690002 335.007050,423.822388 336.665710,423.733704 
	C342.434875,423.425140 345.602234,420.413086 345.614014,414.631226 
	C345.623993,409.735352 346.811096,404.606750 343.637634,400.094513 
	C342.844879,398.967346 343.547791,397.931885 344.093323,396.863525 
	C346.909637,391.348206 345.851379,385.435272 345.297668,379.736481 
	C344.908203,375.727509 341.952881,373.364166 337.667297,373.268616 
	C335.839081,373.227875 333.995575,373.395630 332.183258,373.219360 
	C328.513702,372.862457 327.177094,374.344971 327.254242,378.061951 
	C327.443939,387.203949 327.308655,396.352692 327.306854,406.497742 
M369.600769,419.522797 
	C367.961853,405.701782 366.189880,391.894409 364.773376,378.050629 
	C364.398224,374.384247 362.971893,373.213135 359.469269,373.215454 
	C355.912781,373.217773 354.529358,374.524017 354.227295,378.142242 
	C353.635223,385.235077 352.491241,392.280640 351.639526,399.353424 
	C350.827545,406.096161 350.051849,412.844086 349.360840,419.600037 
	C349.178589,421.382050 348.934998,423.417389 351.723938,423.622986 
	C354.254700,423.809509 354.753876,422.117950 355.068329,420.202087 
	C355.283051,418.893860 355.615753,417.586884 355.655579,416.272064 
	C355.728790,413.853729 357.129578,413.128143 359.236389,413.155060 
	C361.316589,413.181610 362.782196,414.036530 363.050201,416.258087 
	C363.209076,417.575134 363.267883,418.907593 363.306366,420.235016 
	C363.358856,422.045685 363.685791,423.522095 365.968750,423.660217 
	C368.397369,423.807098 369.877686,423.076965 369.600769,419.522797 
z"/>
<path fill="#000000" opacity="1.000000" stroke="none" 
	d="
M399.997437,299.797699 
	C410.889801,300.014954 417.505920,293.815643 422.941864,285.693573 
	C424.832458,287.634827 424.194916,289.558319 424.196747,291.268738 
	C424.240204,331.914795 424.261780,372.560944 424.215668,413.206970 
	C424.200073,426.955170 415.415985,438.462067 402.724792,441.704315 
	C401.756836,441.951630 400.827087,442.416718 399.807800,441.489899 
	C400.428467,438.994110 403.002747,437.869019 404.090240,435.616425 
	C406.472260,430.682373 405.494568,425.851471 403.951508,421.059601 
	C401.116394,412.255280 399.996704,403.081360 397.952148,394.108307 
	C397.074768,390.257721 398.010895,386.373840 399.193329,382.802094 
	C400.868500,377.741882 400.459381,373.124847 397.125885,369.214905 
	C392.082031,363.298859 391.980865,355.988525 390.928925,349.031311 
	C389.247772,337.912384 386.856079,327.200867 380.476013,317.626770 
	C374.995056,309.401917 375.082001,299.630798 373.771515,290.278473 
	C373.150146,285.844116 372.548889,281.394165 371.626251,277.017090 
	C368.707977,263.173553 367.863647,248.877213 362.593140,235.543243 
	C361.617249,233.074402 361.309662,230.068115 359.115936,228.471390 
	C355.472168,225.819214 355.739380,222.960175 357.373474,219.381226 
	C359.306976,215.146561 361.301819,210.862122 362.510345,206.393799 
	C364.036804,200.750046 368.267731,198.087845 372.741760,195.468460 
	C375.473419,193.869156 376.926514,194.501755 377.437469,197.867508 
	C378.309448,203.611221 379.784454,209.266418 380.583344,215.017532 
	C382.134033,226.180679 388.023163,235.602936 392.577209,245.539291 
	C394.344940,249.396240 394.138489,251.192215 389.930756,253.051666 
	C379.494293,257.663635 373.441711,269.426819 375.648987,279.581299 
	C378.287598,291.719849 387.330292,299.369293 399.997437,299.797699 
z"/>
<path fill="#000000" opacity="1.000000" stroke="none" 
	d="
M369.112122,101.043228 
	C368.528748,98.871147 370.089630,99.099434 371.095062,99.096863 
	C380.080078,99.073906 389.104218,98.274345 398.041656,99.388451 
	C413.620575,101.330460 424.089661,112.700104 424.163208,128.442062 
	C424.370850,172.905151 424.227631,217.369919 424.195526,261.833984 
	C424.194763,262.910919 424.591736,264.196228 422.843231,265.274841 
	C419.804810,262.079834 418.975067,256.710785 414.302094,255.004456 
	C406.590576,252.188599 406.351929,245.519714 405.500641,238.950470 
	C405.031891,235.333359 403.752289,231.837143 402.039673,228.573898 
	C396.254120,217.550079 394.431305,205.542084 394.162079,193.388626 
	C393.853516,179.457550 389.930969,167.991486 377.050659,160.716644 
	C373.086090,158.477432 370.302124,154.497269 365.762024,152.732758 
	C362.686798,151.537567 363.300079,149.026703 365.179321,146.632095 
	C368.743713,142.090363 373.042664,137.806259 375.320557,132.656189 
	C378.033691,126.521980 380.070190,119.654190 379.484192,112.818779 
	C378.989532,107.048164 373.801636,104.222115 369.112122,101.043228 
z"/>
<path fill="#000000" opacity="1.000000" stroke="none" 
	d="
M339.819153,384.449677 
	C340.065643,387.543701 339.903076,390.171783 339.451630,392.816101 
	C339.099121,394.880676 338.387207,396.244781 336.047882,396.255249 
	C333.506866,396.266602 333.054382,394.568634 333.012421,392.606995 
	C332.944916,389.451660 332.897583,386.291595 332.997650,383.138489 
	C333.058563,381.219574 332.782745,378.881775 335.783478,378.793518 
	C338.338593,378.718384 339.262146,380.285339 339.467438,382.552338 
	C339.512177,383.045807 339.656860,383.530182 339.819153,384.449677 
z"/>
<path fill="#000000" opacity="1.000000" stroke="none" 
	d="
M336.803925,401.836914 
	C340.128723,405.025787 341.066925,413.603577 338.706451,416.635101 
	C337.263184,418.488647 335.404541,418.921082 333.719727,416.927185 
	C332.372406,415.332672 332.641937,403.851196 334.065735,402.389862 
	C334.543427,401.899597 335.591461,401.964966 336.803925,401.836914 
z"/>
<path fill="#000000" opacity="1.000000" stroke="none" 
	d="
M361.319244,396.871216 
	C361.535828,399.301697 361.652344,401.285675 361.980347,403.234009 
	C362.635681,407.126801 361.560516,409.103882 356.748322,407.722107 
	C356.287262,398.893280 357.995239,390.183594 358.131561,381.346527 
	C358.735901,381.355927 359.340271,381.365326 359.944611,381.374725 
	C360.401337,386.385986 360.858093,391.397278 361.319244,396.871216 
z"/>
</svg>